# xmcd
#
# Track frame offsets:
# 150
# 16911
# 37686
# 59511
# 75851
# 99907
# 128431
# 151375
# 172123
# 194886
# 222204
# 237851
# 256031
# 273139
#
# Disc length: 3817 seconds
#
#
# Revision: 0
# Processed by: cddbd v1.5.1PL0 Copyright (c) Steve Scherf et al.
# Submitted via: FreeRIP 2.90 
#
DISCID=a80ee70e
DTITLE=Billy Ray Hatley and The Showdogs - More Years Than You Got 
DYEAR=2003
DGENRE=Roots Music
TTITLE0=Working For The Devil
TTITLE1=Cold Hard Truth
TTITLE2=More Years Than I Got
TTITLE3=Breakin Down
TTITLE4=Turnin Up The Heat
TTITLE5=Friends
TTITLE6=Cherokee Mother
TTITLE7=California Mexico
TTITLE8=Love's Hard Road
TTITLE9=Roll The Dice
TTITLE10=American Dream
TTITLE11=Apple Blues
TTITLE12=Fever
TTITLE13=Daddy's Cry
EXTD=
EXTT0=
EXTT1=
EXTT2=
EXTT3=
EXTT4=
EXTT5=
EXTT6=
EXTT7=
EXTT8=
EXTT9=
EXTT10=
EXTT11=
EXTT12=
EXTT13=
PLAYORDER=
